<?xml version="1.0" standalone="no"?>
<!DOCTYPE svg PUBLIC "-//W3C//DTD SVG 20010904//EN"
 "http://www.w3.org/TR/2001/REC-SVG-20010904/DTD/svg10.dtd">
<svg version="1.0" xmlns="http://www.w3.org/2000/svg"
 width="225.000000pt" height="225.000000pt" viewBox="0 0 225.000000 225.000000"
 preserveAspectRatio="xMidYMid meet">

<g transform="translate(0.000000,225.000000) scale(0.100000,-0.100000)"
fill="#000000" stroke="none">
<path d="M975 2239 c-433 -54 -808 -379 -930 -802 -178 -623 207 -1270 835
-1407 508 -111 1020 133 1250 595 186 376 148 831 -98 1161 -251 337 -642 505
-1057 453z m311 -190 c385 -68 695 -378 763 -763 14 -77 14 -245 0 -322 -50
-287 -241 -544 -498 -674 -134 -67 -229 -92 -374 -98 -142 -5 -240 7 -345 42
-325 111 -556 372 -627 709 -19 88 -19 276 0 364 80 376 364 662 735 738 80
16 266 19 346 4z"/>
<path d="M1084 1746 c-52 -23 -55 -43 -52 -369 4 -371 -13 -341 193 -345 l145
-3 30 29 c38 39 41 88 6 129 -22 25 -31 28 -105 31 l-81 4 0 229 c0 149 -4
237 -11 253 -11 22 -63 57 -86 56 -4 -1 -22 -7 -39 -14z"/>
</g>
</svg>
