<?xml version="1.0" standalone="no"?>
<!DOCTYPE svg PUBLIC "-//W3C//DTD SVG 20010904//EN"
 "http://www.w3.org/TR/2001/REC-SVG-20010904/DTD/svg10.dtd">
<svg version="1.0" xmlns="http://www.w3.org/2000/svg"
 width="121.000000pt" height="121.000000pt" viewBox="0 0 121.000000 121.000000"
 preserveAspectRatio="xMidYMid meet">

<g transform="translate(0.000000,121.000000) scale(0.100000,-0.100000)"
fill="#000000" stroke="none">
<path d="M301 1200 c-120 -17 -218 -86 -262 -186 -32 -71 -42 -198 -36 -474 3
-197 8 -267 21 -306 32 -101 111 -180 215 -212 83 -25 649 -25 732 0 106 33
184 111 217 217 25 83 25 649 0 732 -32 103 -110 183 -212 215 -41 14 -106 17
-331 20 -154 1 -309 -1 -344 -6z m618 -111 c67 -14 123 -57 152 -116 24 -48
24 -51 24 -368 0 -317 0 -320 -24 -368 -29 -59 -85 -102 -152 -116 -66 -14
-562 -14 -628 0 -67 14 -123 57 -152 116 -24 48 -24 51 -24 368 0 316 0 321
24 368 28 57 76 96 139 113 60 16 569 19 641 3z"/>
<path d="M880 980 c-26 -26 -26 -81 -2 -103 25 -23 78 -21 102 3 27 27 25 66
-5 95 -29 30 -68 32 -95 5z"/>
<path d="M490 893 c-63 -23 -151 -113 -173 -177 -22 -63 -22 -159 0 -222 23
-67 110 -154 177 -177 27 -9 77 -17 111 -17 34 0 84 8 111 17 67 23 154 110
177 177 22 63 22 159 0 222 -23 67 -110 154 -177 177 -61 21 -166 21 -226 0z
m168 -95 c63 -16 124 -78 141 -143 27 -107 -38 -217 -144 -244 -148 -37 -281
96 -244 244 20 80 102 147 187 154 7 1 34 -4 60 -11z"/>
</g>
</svg>
