<?xml version="1.0" standalone="no"?>
<!DOCTYPE svg PUBLIC "-//W3C//DTD SVG 20010904//EN"
 "http://www.w3.org/TR/2001/REC-SVG-20010904/DTD/svg10.dtd">
<svg version="1.0" xmlns="http://www.w3.org/2000/svg"
 width="2048.000000pt" height="2048.000000pt" viewBox="0 0 2048.000000 2048.000000"
 preserveAspectRatio="xMidYMid meet">

<g transform="translate(0.000000,2048.000000) scale(0.100000,-0.100000)"
fill="#000000" stroke="none">
<path d="M10045 18934 c-22 -2 -110 -8 -195 -14 -1728 -121 -3419 -801 -4760
-1914 -80 -66 -190 -161 -244 -211 -55 -49 -115 -104 -135 -122 l-36 -31 130
43 c72 24 179 53 238 64 115 22 375 45 401 35 9 -3 53 23 113 68 1660 1255
3651 1825 5703 1633 1436 -135 2841 -674 4005 -1537 l130 -96 120 -22 c335
-59 668 -179 884 -317 29 -19 55 -32 57 -30 8 7 -348 333 -532 488 -1128 943
-2483 1577 -3930 1839 -315 57 -653 97 -1019 120 -142 9 -827 12 -930 4z"/>
<path d="M10090 18089 c-500 -25 -961 -95 -1365 -205 l-240 -66 -108 -102
-108 -102 258 -176 c317 -215 296 -203 319 -193 11 5 23 7 27 6 4 -1 27 12 50
27 83 56 170 103 186 99 9 -2 36 7 61 19 89 44 263 115 289 118 14 2 73 18
131 37 72 23 127 34 175 35 39 1 124 11 190 24 104 19 152 22 359 21 192 -1
244 -5 268 -17 16 -8 90 -24 165 -35 74 -11 193 -35 264 -53 l128 -33 70 171
c99 244 104 256 100 260 -2 1 -94 38 -204 81 -179 70 -210 79 -295 86 -116 10
-509 9 -720 -2z"/>
<path d="M6934 17224 c-161 -86 -161 -86 -188 -141 -15 -31 -26 -56 -24 -58
16 -13 50 -25 58 -20 6 4 49 -22 97 -57 51 -36 96 -62 108 -60 11 1 88 -22
170 -51 l150 -54 295 -201 c162 -111 297 -201 300 -202 3 0 46 40 96 88 84 81
154 167 154 190 0 6 -12 14 -27 20 -16 5 -79 31 -142 57 l-114 48 -74 154
c-57 119 -79 154 -96 158 -12 2 -141 18 -286 35 -146 17 -268 33 -272 36 -4 2
-10 29 -14 60 -7 62 -14 84 -24 84 -3 0 -78 -39 -167 -86z"/>
<path d="M6665 17071 c-3 -6 4 -15 15 -21 20 -11 21 -10 10 9 -12 23 -16 25
-25 12z"/>
<path d="M14039 16985 l-256 -63 -176 -118 c-98 -64 -176 -119 -174 -120 1 -2
45 8 97 21 267 69 653 135 904 156 215 17 212 12 56 107 -95 58 -143 82 -165
81 -16 -1 -145 -29 -286 -64z"/>
<path d="M7405 16490 c3 -5 11 -10 16 -10 6 0 7 5 4 10 -3 6 -11 10 -16 10 -6
0 -7 -4 -4 -10z"/>
<path d="M7452 16464 c9 -10 38 -50 65 -89 37 -54 54 -71 76 -73 26 -3 27 -2
27 51 l0 53 -77 33 c-112 48 -111 48 -91 25z"/>
<path d="M14575 16445 c-11 -2 -68 -7 -126 -10 l-106 -7 -51 -116 -52 -117 0
-154 0 -153 25 6 c109 28 396 64 380 49 -5 -6 -92 -67 -192 -136 l-181 -127
-12 -72 c-6 -40 -14 -80 -18 -90 -6 -13 -447 -388 -457 -388 -1 0 -102 23
-224 50 -122 28 -223 50 -226 50 -3 0 -5 61 -5 135 0 74 -3 135 -6 135 -4 0
-51 -29 -105 -65 l-99 -64 31 -83 c17 -46 37 -100 45 -120 l13 -38 -149 0
-150 0 0 -108 0 -108 148 -38 c1933 -491 3540 -1259 4577 -2187 453 -406 786
-835 975 -1258 51 -114 105 -259 99 -265 -2 -3 -45 4 -94 14 -49 10 -91 17
-93 16 -1 -2 2 -88 8 -192 5 -104 10 -257 10 -340 l0 -151 -42 1 c-24 0 -64
-3 -89 -7 l-46 -8 -17 148 c-18 157 -65 354 -116 493 -42 115 -170 374 -240
487 -681 1088 -2352 2104 -4485 2727 -184 53 -618 168 -620 163 -1 -1 -9 -38
-19 -82 -10 -44 -33 -127 -51 -185 -18 -58 -36 -120 -39 -137 -9 -52 -106
-259 -179 -382 -37 -62 -67 -123 -67 -136 0 -12 -30 -63 -67 -112 -38 -49 -86
-113 -108 -142 -57 -75 -176 -201 -269 -284 -44 -38 -75 -68 -69 -66 6 2 90
42 186 88 l176 84 77 192 77 192 133 83 c74 45 138 87 142 94 4 6 19 38 34 71
l27 60 138 31 c76 17 180 40 231 51 l92 21 118 -135 117 -134 138 -70 c75 -38
137 -73 137 -78 0 -5 -31 -75 -69 -155 -38 -80 -65 -146 -60 -146 6 0 59 14
119 31 l108 32 61 154 61 155 -137 155 c-187 210 -178 193 -107 193 l59 0 152
-120 c83 -66 154 -128 157 -138 3 -9 17 -87 32 -172 20 -115 32 -161 48 -181
33 -42 251 -287 253 -285 1 0 13 89 27 196 37 270 28 245 93 275 98 45 93 46
168 -42 37 -43 122 -154 188 -248 66 -93 123 -173 127 -178 3 -4 110 -16 236
-26 l230 -19 129 -82 c72 -45 132 -84 134 -86 2 -1 -22 -39 -54 -84 -39 -55
-100 -119 -196 -205 l-139 -125 -192 0 -191 0 -265 86 -266 86 -135 -17 -136
-16 -42 -47 c-23 -26 -66 -75 -95 -109 -29 -34 -55 -62 -59 -62 -3 -1 -133
126 -290 282 l-284 283 -195 49 -195 49 -280 -33 c-265 -31 -294 -36 -548
-104 l-267 -72 -249 -285 c-137 -157 -328 -379 -425 -495 l-175 -210 -165
-392 c-92 -216 -166 -398 -166 -404 0 -6 32 -47 71 -90 43 -48 69 -85 66 -93
-3 -8 -64 -102 -136 -210 l-130 -195 152 -363 153 -363 383 -435 c211 -239
387 -436 390 -438 3 -1 89 70 191 158 102 87 188 159 191 160 3 0 40 -40 83
-90 43 -49 82 -90 87 -90 5 0 100 57 211 127 169 107 202 124 212 112 6 -9 35
-43 65 -77 l54 -62 206 0 207 0 114 -131 c63 -72 116 -134 118 -138 1 -5 -29
-113 -68 -241 l-70 -233 54 -61 c30 -33 95 -106 145 -161 l90 -100 1 -61 0
-62 75 28 c41 15 72 23 68 17 -4 -7 0 -8 13 -3 68 26 377 105 416 106 4 0 5
-7 1 -15 -4 -13 2 -15 38 -9 24 3 51 8 59 11 26 9 432 14 426 5 -3 -5 55 -12
130 -15 76 -4 148 -13 167 -21 18 -7 72 -19 120 -26 48 -7 92 -19 98 -27 6 -7
19 -13 28 -13 30 0 235 -61 251 -74 8 -7 56 -27 105 -45 50 -19 95 -39 100
-45 6 -7 65 -39 133 -71 67 -32 122 -63 122 -69 0 -6 33 -29 72 -51 39 -22 84
-53 100 -69 16 -15 61 -52 101 -82 l72 -54 47 53 48 52 0 118 c0 64 3 117 8
117 13 -1 42 -27 42 -38 0 -7 11 -19 24 -28 14 -8 26 -22 28 -30 2 -8 69 66
150 163 297 359 590 749 856 1141 68 100 135 190 148 199 14 8 38 17 54 19 17
2 43 10 59 18 16 9 31 13 34 10 3 -3 23 4 46 16 23 11 41 16 41 10 0 -6 11 -5
29 4 27 14 29 21 50 152 12 76 29 198 38 273 16 131 18 139 64 216 36 61 56
85 83 98 45 21 50 21 42 2 -5 -14 -2 -14 24 0 16 8 42 17 57 19 16 1 43 10 60
20 28 14 32 14 27 1 -8 -19 -5 -19 39 0 20 8 39 15 42 15 2 0 3 -63 0 -141
l-4 -141 -92 -161 c-365 -640 -847 -1332 -1422 -2041 -122 -151 -174 -223
-167 -230 5 -5 10 -17 10 -26 0 -9 9 -25 20 -35 11 -10 19 -26 18 -34 -2 -9 8
-31 20 -49 13 -17 20 -32 17 -32 -3 0 2 -12 13 -27 11 -16 22 -38 26 -50 4
-11 13 -27 21 -33 8 -7 15 -19 15 -27 0 -8 14 -34 30 -58 17 -24 29 -48 28
-52 -1 -4 3 -18 10 -30 7 -13 10 -23 7 -23 -4 0 3 -16 15 -35 12 -19 19 -38
17 -42 -3 -5 1 -16 8 -26 11 -16 17 -10 52 50 68 116 102 178 177 323 l73 141
27 -52 c17 -34 23 -55 17 -63 -6 -7 -3 -20 9 -36 11 -14 20 -32 20 -40 0 -8 9
-29 20 -47 11 -18 15 -35 10 -38 -15 -9 0 -65 31 -121 20 -35 25 -54 18 -61
-8 -8 -6 -20 5 -41 9 -17 16 -38 16 -47 0 -40 -177 -354 -372 -662 l-109 -171
20 -105 c22 -113 40 -283 44 -412 l2 -80 120 160 c1537 2042 2057 4699 1410
7200 -311 1204 -897 2345 -1691 3290 -141 168 -358 407 -375 413 -11 4 -289
-235 -289 -249 0 -25 39 -81 128 -183 l96 -111 -115 110 c-172 164 -326 269
-530 361 -102 46 -281 109 -362 128 -29 7 -29 6 -23 -31 3 -21 8 -60 11 -87
l7 -49 -62 51 c-34 29 -66 52 -70 52 -5 0 -15 -8 -22 -19 -7 -10 -30 -37 -50
-59 l-37 -41 -134 136 -134 137 -224 2 c-123 1 -233 1 -244 -1z m2020 -725
c10 -11 16 -20 13 -20 -3 0 -13 9 -23 20 -10 11 -16 20 -13 20 3 0 13 -9 23
-20z m101 -125 c31 -41 54 -79 52 -85 -2 -6 -34 33 -71 87 -78 110 -66 108 19
-2z m-783 -3743 l88 -101 -50 -187 c-28 -102 -55 -193 -60 -201 -6 -12 -15 -7
-42 25 -29 34 -42 72 -101 286 l-68 247 42 50 43 50 30 -34 c17 -19 70 -80
118 -135z"/>
<path d="M14010 16383 c-235 -39 -596 -125 -870 -209 -265 -80 -285 -88 -284
-110 1 -42 109 -504 116 -504 5 0 79 50 164 110 85 61 158 110 162 110 4 0 52
-52 107 -115 95 -110 106 -118 224 -186 68 -38 125 -69 126 -67 2 2 37 94 78
205 l75 202 -45 121 -46 121 43 82 c33 64 61 100 129 164 86 82 88 87 21 76z"/>
<path d="M3541 15332 c-156 -221 -327 -490 -453 -712 -89 -158 -231 -430 -226
-435 2 -2 35 15 73 37 39 23 183 98 320 168 l250 126 27 49 c24 46 25 54 16
105 -5 30 -10 136 -11 235 -1 180 13 313 48 445 8 30 13 55 12 56 -1 1 -26
-32 -56 -74z"/>
<path d="M2792 14043 c-78 -166 -170 -380 -242 -568 -81 -212 -190 -543 -190
-580 0 -63 225 -666 248 -665 4 0 31 97 60 214 64 259 140 506 234 766 70 193
207 530 252 619 32 63 42 111 23 111 -8 0 -27 11 -43 25 -29 25 -36 31 -66 50
-67 44 -104 69 -108 75 -3 4 -24 19 -47 34 -24 14 -43 31 -43 36 0 32 -24 -5
-78 -117z"/>
<path d="M3457 13454 c-16 -27 -162 -399 -207 -529 -125 -363 -232 -787 -304
-1205 l-15 -85 36 -60 c45 -75 240 -365 259 -385 12 -12 14 -6 14 43 0 48 55
447 63 452 1 1 104 79 229 173 l227 172 182 2 183 3 27 93 c15 51 30 96 33
100 10 10 448 -91 466 -108 10 -8 84 -97 165 -198 82 -100 151 -179 155 -175
4 4 17 125 29 268 13 143 26 292 30 331 l7 72 -70 11 c-38 7 -75 15 -80 20 -6
4 -60 20 -120 36 -60 16 -116 36 -125 46 -9 10 -50 30 -91 45 -96 34 -232 95
-245 110 -5 6 -46 30 -90 54 -107 57 -155 90 -155 105 0 6 -36 37 -80 69 -104
74 -240 187 -240 199 0 5 -52 63 -115 129 -76 78 -115 127 -115 141 0 26 -44
85 -53 71z"/>
<path d="M2166 12144 c-24 -81 -96 -550 -121 -789 -56 -552 -59 -1157 -10
-1690 118 -1265 510 -2461 1173 -3575 76 -128 342 -531 385 -585 l24 -29 -13
89 c-24 161 -36 366 -32 555 l3 186 -56 94 c-500 843 -850 1826 -1003 2810
-67 432 -90 747 -90 1240 0 408 6 531 45 910 l21 205 -73 125 c-39 69 -111
203 -159 299 -62 122 -90 168 -94 155z"/>
<path d="M2856 10907 c-3 -49 -6 -168 -6 -263 l0 -172 53 -31 52 -31 15 22 c8
12 39 55 68 96 28 40 52 78 52 84 0 6 6 19 14 27 13 15 1 35 -113 188 l-128
171 -7 -91z"/>
<path d="M7340 9050 c0 -5 -7 -7 -15 -4 -12 5 -15 -4 -15 -44 0 -69 -19 -205
-31 -216 -5 -6 -9 -18 -9 -29 0 -46 -32 -157 -46 -157 -8 0 -14 -7 -14 -15 0
-23 -69 -233 -78 -237 -5 -2 -23 -40 -41 -84 -18 -45 -39 -90 -47 -100 -8 -11
-42 -68 -75 -127 -43 -78 -68 -111 -86 -118 -23 -8 -24 -12 -12 -23 47 -45
591 -374 930 -564 434 -242 1037 -549 1050 -535 47 54 324 467 330 493 10 42
62 491 57 494 -2 2 -257 132 -568 289 -311 157 -646 328 -744 379 l-179 93
-118 230 c-65 127 -120 234 -122 238 -2 6 -127 42 -164 47 -2 0 -3 -4 -3 -10z"/>
<path d="M6578 7563 c-18 -19 -43 -40 -54 -46 -12 -7 -59 -44 -104 -84 -46
-39 -89 -69 -96 -66 -7 2 -43 -18 -81 -45 -81 -59 -218 -142 -233 -142 -6 0
-53 -20 -103 -44 -100 -48 -134 -60 -309 -111 -172 -50 -295 -72 -450 -80 -76
-4 -138 -10 -138 -14 0 -3 35 -70 78 -148 l77 -142 271 -240 271 -241 114
-162 c63 -89 117 -166 121 -172 7 -12 -5 -292 -13 -300 -6 -6 -296 65 -466
114 -394 114 -781 255 -1126 411 l-128 57 48 -66 c435 -616 960 -1166 1554
-1627 85 -66 164 -127 176 -135 l22 -15 -45 -185 c-43 -179 -44 -185 -29 -229
8 -24 13 -46 10 -49 -9 -9 -335 234 -564 421 -432 354 -839 765 -1189 1200
-143 179 -136 172 -129 117 l6 -45 -140 -119 -140 -118 17 -27 c69 -104 360
-445 552 -643 541 -560 1075 -990 1685 -1358 l138 -83 50 23 49 23 102 -99
c57 -55 128 -119 158 -142 94 -70 636 -325 812 -382 183 -58 564 -96 878 -86
389 12 712 59 1165 171 783 193 1627 536 2440 990 289 162 370 215 325 215
-14 0 -58 47 -65 71 -4 11 -11 17 -16 13 -5 -3 -16 11 -25 31 -8 20 -19 33
-23 30 -5 -3 -15 10 -21 29 -7 23 -16 33 -25 30 -8 -4 -20 6 -30 25 -8 17 -19
31 -23 31 -5 0 -16 22 -26 50 -10 27 -22 48 -26 45 -4 -3 -11 7 -14 20 -4 14
-11 23 -15 20 -5 -3 -12 8 -16 25 -4 16 -11 30 -16 30 -6 0 -15 14 -20 30 -6
17 -15 30 -19 30 -5 0 -12 15 -16 32 -3 18 -12 37 -19 43 -8 5 -15 19 -17 30
-2 11 -11 19 -20 19 -11 -1 -18 10 -23 32 -3 19 -10 34 -14 34 -5 0 -12 15
-15 34 -4 21 -14 37 -25 41 -13 4 -20 20 -25 57 -4 28 -14 60 -22 72 -8 11
-14 31 -14 44 0 17 -4 22 -14 19 -10 -4 -16 5 -21 34 -4 21 -11 39 -16 39 -5
0 -9 14 -9 31 0 23 -4 30 -14 26 -11 -4 -16 3 -18 26 -2 20 -9 32 -17 32 -9 0
-20 22 -29 62 -11 44 -19 60 -28 56 -10 -4 -14 4 -14 26 0 20 -5 31 -14 31
-10 0 -16 19 -21 64 -6 49 -10 63 -21 59 -10 -4 -14 4 -14 31 0 27 -3 34 -15
30 -11 -5 -15 1 -15 25 0 17 -5 31 -11 31 -7 0 -17 6 -23 13 -6 8 -90 38 -186
67 -96 29 -287 90 -423 135 l-248 83 -112 -35 c-601 -185 -1252 -309 -1857
-353 -80 -5 -180 -13 -224 -16 l-79 -6 23 39 c13 21 24 39 25 40 1 2 102 26
226 54 123 28 228 54 232 59 5 4 62 130 128 280 l119 273 -10 111 c-20 213 -8
188 -113 237 -610 286 -1357 696 -2009 1102 l-136 85 -34 -35z m989 -4173 c46
-18 81 -35 80 -37 -5 -4 -451 -33 -519 -33 -43 0 -56 3 -52 13 2 7 -9 49 -25
93 l-29 79 45 46 44 46 187 -87 c103 -47 224 -102 269 -120z"/>
<path d="M11041 5967 l-54 -21 64 -22 c35 -12 67 -19 72 -17 14 8 7 25 -9 19
-14 -5 -15 -1 -10 29 8 41 8 40 -63 12z"/>
<path d="M12390 3512 c-175 -103 -500 -283 -695 -384 -959 -496 -1758 -792
-2600 -963 -140 -28 -202 -45 -185 -49 52 -12 331 -56 480 -75 1063 -137 2172
-71 3183 188 560 144 1127 354 1611 598 l119 60 -99 22 c-122 28 -291 82 -396
126 l-78 33 -122 -49 c-316 -128 -718 -261 -775 -257 -15 1 -42 12 -59 25 -18
13 -38 21 -47 17 -11 -4 -37 12 -76 46 -52 45 -65 52 -90 47 -21 -4 -33 -1
-46 13 -10 11 -23 20 -30 20 -6 0 -29 18 -50 41 -25 25 -46 38 -57 36 -10 -3
-22 1 -29 9 -6 8 -15 12 -19 9 -5 -3 -11 -1 -15 5 -3 5 0 10 9 10 22 0 240 64
418 122 124 41 155 54 147 64 -6 7 -21 16 -32 20 -12 3 -34 18 -49 32 -16 14
-28 22 -28 17 0 -5 -10 1 -22 13 -13 11 -25 20 -28 19 -3 -1 -36 25 -74 58
-37 33 -73 62 -79 64 -6 2 -20 15 -30 28 -10 12 -24 23 -30 23 -7 0 -21 13
-32 29 l-20 28 -75 -45z"/>
</g>
</svg>
